# xmcd
#
# Track frame offsets: 
#        155
#        13220
#        22090
#
# Disc length: 411 seconds
#
# Revision: 0
# Processed by: cddbd v1.5.2PL0 Copyright (c) Steve Scherf et al.
# Submitted via: ExactAudioCopy v0.99pb4
#
DISCID=1f019903
DTITLE=Brassy - I Can't Wait
DYEAR=1999
DGENRE=Indie
TTITLE0=I Can't Wait
TTITLE1=I Gotta Beef
TTITLE2=So Hot It Hurts
EXTD=
EXTT0=
EXTT1=
EXTT2=
PLAYORDER=
